<svg fill="currentColor" viewBox="0 0 32 32" xmlns="http://www.w3.org/2000/svg"><path fill-rule="evenodd" clip-rule="evenodd" d="M8.27938 4.54125C8.97188 4.12125 11.4212 2.86812 16 2.86812C21.2746 2.86812 23.7238 4.5364 23.9171 4.66809C23.9216 4.67113 23.9248 4.67335 23.9269 4.67471C23.9282 4.67555 23.929 4.67607 23.9294 4.67625L24.7981 5.23L25.8125 3.65438L24.9862 3.11937C24.9538 3.09562 24.92 3.07188 24.8862 3.04938C24.0938 2.53375 21.2838 1 16 1C10.5181 1 7.70312 2.655 7.03687 3.10687L6.1875 3.6575L7.2 5.23313L8.27938 4.54125ZM3.54955 12.5363L4.32205 13.005L4.78143 12.1562C5.81705 10.4219 8.98643 6.375 16.0002 6.375C23.1877 6.375 26.2502 10.77 27.2564 12.2163L27.7664 13.01L29.3677 12L28.8339 11.165C28.2789 10.3619 27.1139 8.69438 25.0352 7.22125C22.5096 5.42625 19.4689 4.51562 16.0002 4.51562C7.9958 4.51562 4.33205 9.21 3.12518 11.2188L2.66455 12L3.37518 12.4288C3.40749 12.454 3.44153 12.477 3.47705 12.4975C3.50052 12.5117 3.52472 12.5246 3.54955 12.5363ZM23.7011 10.7695C21.4799 8.96141 18.8186 8.00391 15.9999 8.00391C9.90485 8.00391 5.85548 12.1289 4.54173 16.2208C3.35211 19.9571 4.7686 25.3524 4.85977 25.6997L4.86235 25.7095L5.1361 26.5727L7.00673 26.1708L6.71048 25.2333C6.69735 25.1864 5.32923 20.0502 6.37235 16.7827C6.93485 15.0277 8.10548 13.3202 9.58173 12.1083C11.363 10.6489 13.5842 9.87453 15.9999 9.87453C21.6611 9.87453 24.8705 14.2877 25.778 16.6314C26.4824 18.4395 26.3199 20.4952 25.3855 21.7564C25.0399 22.2183 24.4305 22.7608 23.503 22.7139C21.3899 22.6064 21.0242 21.562 20.5161 19.5733L20.5121 19.5574C20.2696 18.6048 20.0189 17.6201 19.3992 16.8233C18.6405 15.8389 17.5367 15.3633 16.0067 15.3633C14.3611 15.3633 13.1149 15.9058 12.2955 16.9708C10.508 19.3008 11.6705 23.2789 11.7199 23.4464L11.7336 23.4995C11.8217 23.7408 13.9886 29.5402 19.7917 30.9795L20.7149 31.1802L21.2205 29.3858L20.2661 29.1714C15.6274 28.0195 13.6905 23.272 13.5417 22.897C13.3741 22.2885 13.2673 21.6648 13.223 21.0352C13.1555 20.1314 13.203 18.8858 13.8124 18.0889C14.2592 17.5064 14.9774 17.2252 15.9999 17.2252C17.8617 17.2252 18.1736 18.1358 18.6611 20.0245C19.1349 21.8658 19.7861 24.3902 23.4011 24.5714C24.7892 24.6383 26.0424 24.022 26.9224 22.8433C28.243 21.0758 28.4936 18.3702 27.5592 15.9595C26.8292 14.062 25.4211 12.1758 23.7011 10.7695ZM11.2957 15.2769C9.72447 17.0131 9.41947 19.6831 9.63634 21.4506C10.0695 24.4644 11.2276 26.8619 13.2726 29.0044L13.9188 29.6162L12.6095 30.9781L11.8845 30.2769C9.56259 27.8394 8.25009 25.1138 7.75197 21.7056V21.685C7.47447 19.4287 7.88072 16.2344 9.87134 14.0381C11.3407 12.4175 13.4063 11.5938 16.0001 11.5938C19.0695 11.5938 21.4801 13.02 22.9838 15.7144C24.0732 17.67 24.2895 19.6187 24.2963 19.6987C24.3397 20.0219 24.3606 20.3477 24.3588 20.6737L22.4838 20.8113L22.3945 19.8931C22.2292 18.7246 21.8504 17.5965 21.277 16.565C20.112 14.5094 18.3382 13.4644 15.9951 13.4644C13.9701 13.4644 12.3857 14.0712 11.2957 15.2769ZM19.3674 24.7718C20.6336 25.783 22.3261 26.1843 24.4117 25.9499L25.2842 25.8149L25.6655 27.6718L24.6286 27.8024C24.1814 27.8552 23.7315 27.8822 23.2811 27.883C21.2499 27.883 19.523 27.3205 18.1411 26.2024C15.3788 23.9768 15.0568 20.359 15.0401 20.1713L15.0399 20.1687L14.958 19.2312L16.8661 19.0918L16.943 20.0218C16.9431 20.023 16.9434 20.0254 16.9438 20.0292C16.9624 20.2026 17.2725 23.0936 19.3674 24.7718Z" /></svg>
