<svg fill="currentColor" viewBox="0 0 32 32" xmlns="http://www.w3.org/2000/svg"><g clip-path="url(#clip0_4_7435)"><path fill-rule="evenodd" clip-rule="evenodd" d="M14.8788 0.87868C15.4414 0.316071 16.2044 0 17.0001 0C17.7957 0 18.5588 0.316071 19.1214 0.87868C19.4939 1.2512 19.7584 1.71159 19.8945 2.21114C20.2431 2.07295 20.6178 2 21.0001 2C21.7957 2 22.5588 2.31607 23.1214 2.87868C23.684 3.44129 24.0001 4.20435 24.0001 5V6.17157C24.3183 6.05906 24.6561 6 25.0001 6C25.7957 6 26.5588 6.31607 27.1214 6.87868C27.684 7.44129 28.0001 8.20435 28.0001 9V19.9977C28.0001 19.9987 28.0001 19.9996 28.0001 20.0005C28.0001 23.8463 26.9499 26.864 25.0483 28.9294C23.1393 31.0027 20.4785 32.0005 17.5001 32.0005C14.5974 32.0005 12.4471 31.3455 10.8342 30.2003C9.22553 29.0581 8.25432 27.5008 7.57784 25.8871C7.57188 25.8729 7.56624 25.8585 7.56094 25.844L4.27004 16.8467L4.26953 16.8453C4.01354 16.1509 3.91184 15.3984 4.08866 14.6819C4.27219 13.9382 4.73795 13.314 5.456 12.9061L7.39594 14.5769C7.11785 14.458 6.76825 14.4608 6.44417 14.6449L6.44399 14.645C6.19276 14.7877 6.07953 14.962 6.03041 15.161C5.9747 15.3868 5.98649 15.721 6.14638 16.1544L6.14736 16.157L9.43114 25.1349C10.0217 26.537 10.7987 27.7222 11.9921 28.5695C13.1871 29.4181 14.9028 30.0005 17.5001 30.0005C20.0217 30.0005 22.1108 29.167 23.5769 27.5747C25.0499 25.9749 25.9997 23.4933 26.0001 20.0027C26.0001 20.0018 26.0001 20.0009 26.0001 20V9C26.0001 8.73478 25.8947 8.48043 25.7072 8.29289C25.5197 8.10536 25.2653 8 25.0001 8C24.7349 8 24.4805 8.10536 24.293 8.29289C24.1054 8.48043 24.0001 8.73478 24.0001 9V16C24.0001 16.5523 23.5524 17 23.0001 17C22.4478 17 22.0001 16.5523 22.0001 16V9V5C22.0001 4.73478 21.8947 4.48043 21.7072 4.29289C21.5197 4.10536 21.2653 4 21.0001 4C20.7349 4 20.4805 4.10536 20.293 4.29289C20.1054 4.48043 20.0001 4.73478 20.0001 5V15C20.0001 15.5523 19.5524 16 19.0001 16C18.4478 16 18.0001 15.5523 18.0001 15V5V3C18.0001 2.73478 17.8947 2.48043 17.7072 2.29289C17.5197 2.10536 17.2653 2 17.0001 2C16.7349 2 16.4805 2.10536 16.293 2.29289C16.1054 2.48043 16.0001 2.73478 16.0001 3V6V15V15.0625C16.0001 15.6148 15.5524 16.0625 15.0001 16.0625C14.4478 16.0625 14.0001 15.6148 14.0001 15.0625V15V6C14.0001 5.73478 13.8947 5.48043 13.7072 5.29289C13.5197 5.10536 13.2653 5 13.0001 5C12.7349 5 12.4805 5.10536 12.293 5.29289C12.1054 5.48043 12.0001 5.73478 12.0001 6V19.9772C12.0019 20.0549 11.9945 20.132 11.9786 20.207C11.9622 20.2851 11.9367 20.3598 11.9032 20.43C11.8007 20.6456 11.6212 20.8254 11.3834 20.9241C10.8878 21.1298 10.3213 20.9073 10.0954 20.4266C10.087 20.4088 10.0791 20.3908 10.0717 20.3725L7.81683 14.9394C7.72291 14.7792 7.57415 14.6531 7.39604 14.577L5.45618 12.906C6.8509 12.1135 8.78203 12.4773 9.60438 14.0398C9.61852 14.0666 9.63143 14.0941 9.64307 14.1222L10.0001 14.9824V6C10.0001 5.20435 10.3162 4.44129 10.8788 3.87868C11.4414 3.31607 12.2044 3 13.0001 3C13.344 3 13.6819 3.05906 14.0001 3.17157V3C14.0001 2.20435 14.3162 1.44129 14.8788 0.87868ZM7.39604 14.577C7.39601 14.5769 7.39597 14.5769 7.39594 14.5769L7.81683 14.9394L7.39604 14.577Z" /></g><defs><clipPath id="clip0_4_7435"><rect width="32" height="32" fill="white"/></clipPath></defs></svg>
