<svg fill="currentColor" viewBox="0 0 32 32" xmlns="http://www.w3.org/2000/svg"><path fill-rule="evenodd" clip-rule="evenodd" d="M16 3C8.82272 3 3 8.82272 3 16C3 23.1773 8.82272 29 16 29C23.1773 29 29 23.1773 29 16C29 8.82272 23.1773 3 16 3ZM5 16C5 9.92728 9.92728 5 16 5C22.0727 5 27 9.92728 27 16C27 22.0727 22.0727 27 16 27C9.92728 27 5 22.0727 5 16ZM17 8C17 7.44772 16.5523 7 16 7C15.4477 7 15 7.44772 15 8V17C15 17.5523 15.4477 18 16 18H22C22.5523 18 23 17.5523 23 17C23 16.4477 22.5523 16 22 16H17V8Z" /></svg>
